<svg width="335" height="61" viewBox="0 0 335 61" fill="none" xmlns="http://www.w3.org/2000/svg">
<path d="M0 11H185C190.523 11 195 15.4772 195 21V27H0V11Z" fill="#ED2114"/>
<path d="M0 20H188C193.523 20 198 24.4772 198 30V36H0V20Z" fill="#FFD600"/>
<path d="M0 30H191C196.523 30 201 34.4772 201 40V45H0V30Z" fill="#00FF85"/>
<path d="M0 39H196C200.971 39 205 43.0294 205 48V48H0V39Z" fill="#2A27D9"/>
<g filter="url(#filter0_d_44_348)">
<path d="M190.23 16.6426L179.693 48H172.305L186.117 11.0312H190.84L190.23 16.6426ZM199.041 48L188.453 16.6426L187.818 11.0312H192.566L206.455 48H199.041ZM198.559 34.2637V39.7734H178.729V34.2637H198.559ZM229.611 38.4023C229.611 37.6914 229.501 37.0566 229.281 36.498C229.078 35.9225 228.697 35.4062 228.139 34.9492C227.597 34.4753 226.827 34.0182 225.828 33.5781C224.846 33.1211 223.577 32.6471 222.02 32.1562C220.293 31.6146 218.685 31.0052 217.195 30.3281C215.706 29.651 214.394 28.8639 213.26 27.9668C212.143 27.0697 211.271 26.0371 210.645 24.8691C210.018 23.6842 209.705 22.3132 209.705 20.7559C209.705 19.2324 210.027 17.8444 210.67 16.5918C211.33 15.3392 212.261 14.2643 213.463 13.3672C214.665 12.4531 216.078 11.7507 217.703 11.2598C219.345 10.7689 221.156 10.5234 223.137 10.5234C225.879 10.5234 228.249 11.0228 230.246 12.0215C232.26 13.0202 233.818 14.3743 234.918 16.084C236.018 17.7936 236.568 19.7148 236.568 21.8477H229.611C229.611 20.6966 229.366 19.681 228.875 18.8008C228.401 17.9206 227.673 17.2266 226.691 16.7188C225.727 16.2109 224.508 15.957 223.035 15.957C221.613 15.957 220.428 16.1686 219.48 16.5918C218.549 17.015 217.847 17.5905 217.373 18.3184C216.916 19.0462 216.688 19.8587 216.688 20.7559C216.688 21.4329 216.848 22.0423 217.17 22.584C217.492 23.1087 217.974 23.6081 218.617 24.082C219.26 24.5391 220.056 24.9707 221.004 25.377C221.969 25.7663 223.086 26.1556 224.355 26.5449C226.387 27.1543 228.164 27.8314 229.688 28.5762C231.228 29.321 232.506 30.1673 233.521 31.1152C234.554 32.0632 235.324 33.1296 235.832 34.3145C236.357 35.4993 236.619 36.8451 236.619 38.3516C236.619 39.9427 236.306 41.3646 235.68 42.6172C235.053 43.8698 234.156 44.9362 232.988 45.8164C231.82 46.6966 230.415 47.3652 228.773 47.8223C227.148 48.2793 225.329 48.5078 223.314 48.5078C221.52 48.5078 219.743 48.2708 217.982 47.7969C216.239 47.306 214.656 46.5781 213.234 45.6133C211.812 44.6315 210.678 43.3958 209.832 41.9062C208.986 40.3997 208.562 38.6393 208.562 36.625H215.57C215.57 37.793 215.757 38.7917 216.129 39.6211C216.518 40.4336 217.06 41.1022 217.754 41.627C218.465 42.1348 219.294 42.5072 220.242 42.7441C221.19 42.9811 222.214 43.0996 223.314 43.0996C224.736 43.0996 225.904 42.9049 226.818 42.5156C227.749 42.1094 228.443 41.5508 228.9 40.8398C229.374 40.1289 229.611 39.3164 229.611 38.4023ZM256.221 34.5176H246.699V29.0332H256.221C257.778 29.0332 259.039 28.7793 260.004 28.2715C260.986 27.7467 261.705 27.0358 262.162 26.1387C262.619 25.2246 262.848 24.1836 262.848 23.0156C262.848 21.8815 262.619 20.8236 262.162 19.8418C261.705 18.86 260.986 18.0645 260.004 17.4551C259.039 16.8457 257.778 16.541 256.221 16.541H248.984V48H242.002V11.0312H256.221C259.098 11.0312 261.553 11.5475 263.584 12.5801C265.632 13.5957 267.189 15.0091 268.256 16.8203C269.339 18.6146 269.881 20.6628 269.881 22.9648C269.881 25.3516 269.339 27.4082 268.256 29.1348C267.189 30.8613 265.632 32.1901 263.584 33.1211C261.553 34.0521 259.098 34.5176 256.221 34.5176Z" fill="white"/>
</g>
<defs>
<filter id="filter0_d_44_348" x="168.305" y="10.5234" width="105.576" height="45.9844" filterUnits="userSpaceOnUse" color-interpolation-filters="sRGB">
<feFlood flood-opacity="0" result="BackgroundImageFix"/>
<feColorMatrix in="SourceAlpha" type="matrix" values="0 0 0 0 0 0 0 0 0 0 0 0 0 0 0 0 0 0 127 0" result="hardAlpha"/>
<feOffset dy="4"/>
<feGaussianBlur stdDeviation="2"/>
<feComposite in2="hardAlpha" operator="out"/>
<feColorMatrix type="matrix" values="0 0 0 0 0 0 0 0 0 0 0 0 0 0 0 0 0 0 0.25 0"/>
<feBlend mode="normal" in2="BackgroundImageFix" result="effect1_dropShadow_44_348"/>
<feBlend mode="normal" in="SourceGraphic" in2="effect1_dropShadow_44_348" result="shape"/>
</filter>
</defs>
</svg>
