<svg width="1588" height="398" viewBox="0 0 1588 398" fill="none" xmlns="http://www.w3.org/2000/svg">
<path d="M0 71.1154H893.151C898.674 71.1154 903.151 75.5925 903.151 81.1154V170.346H0V71.1154Z" fill="#ED2114"/>
<path d="M0 124H905C910.523 124 915 128.477 915 134V228H0V124Z" fill="#FFD600"/>
<path d="M0 189H920C925.523 189 930 193.477 930 199V288H0V189Z" fill="#00FF85"/>
<path d="M0 245H938C943.523 245 948 249.477 948 255V302H0V245Z" fill="#2A27D9"/>
<g filter="url(#filter0_d_152_181)">
<path d="M889.94 106.016L824.083 302H777.904L864.232 70.9453H893.749L889.94 106.016ZM945.006 302L878.832 106.016L874.865 70.9453H904.54L991.344 302H945.006ZM941.991 216.148V250.584H818.053V216.148H941.991ZM1136.07 242.015C1136.07 237.571 1135.38 233.604 1134.01 230.113C1132.74 226.516 1130.36 223.289 1126.87 220.433C1123.48 217.47 1118.67 214.614 1112.43 211.863C1106.29 209.007 1098.36 206.045 1088.62 202.977C1077.83 199.591 1067.78 195.783 1058.47 191.551C1049.16 187.319 1040.96 182.4 1033.87 176.792C1026.89 171.185 1021.44 164.732 1017.53 157.432C1013.61 150.027 1011.66 141.457 1011.66 131.724C1011.66 122.203 1013.67 113.528 1017.69 105.699C1021.81 97.87 1027.63 91.152 1035.14 85.5449C1042.65 79.832 1051.49 75.4416 1061.64 72.3735C1071.91 69.3055 1083.23 67.7715 1095.6 67.7715C1112.74 67.7715 1127.55 70.8924 1140.04 77.1343C1152.63 83.3761 1162.36 91.8397 1169.24 102.525C1176.11 113.21 1179.55 125.218 1179.55 138.548H1136.07C1136.07 131.354 1134.54 125.006 1131.47 119.505C1128.51 114.004 1123.96 109.666 1117.82 106.492C1111.79 103.318 1104.17 101.731 1094.97 101.731C1086.08 101.731 1078.68 103.054 1072.75 105.699C1066.93 108.344 1062.54 111.941 1059.58 116.49C1056.73 121.039 1055.3 126.117 1055.3 131.724C1055.3 135.956 1056.3 139.764 1058.31 143.15C1060.32 146.43 1063.34 149.55 1067.36 152.513C1071.38 155.369 1076.35 158.067 1082.27 160.606C1088.3 163.039 1095.29 165.472 1103.22 167.906C1115.92 171.714 1127.03 175.946 1136.55 180.601C1146.17 185.256 1154.16 190.546 1160.51 196.47C1166.96 202.395 1171.78 209.06 1174.95 216.465C1178.23 223.871 1179.87 232.282 1179.87 241.697C1179.87 251.642 1177.91 260.529 1174 268.357C1170.08 276.186 1164.48 282.851 1157.18 288.353C1149.88 293.854 1141.1 298.033 1130.83 300.889C1120.68 303.746 1109.3 305.174 1096.72 305.174C1085.5 305.174 1074.39 303.693 1063.39 300.73C1052.49 297.662 1042.6 293.113 1033.71 287.083C1024.83 280.947 1017.74 273.224 1012.45 263.914C1007.16 254.498 1004.52 243.496 1004.52 230.906H1048.31C1048.31 238.206 1049.48 244.448 1051.81 249.632C1054.24 254.71 1057.62 258.889 1061.96 262.168C1066.41 265.342 1071.59 267.67 1077.51 269.151C1083.44 270.632 1089.84 271.373 1096.72 271.373C1105.6 271.373 1112.9 270.156 1118.61 267.723C1124.43 265.184 1128.77 261.692 1131.63 257.249C1134.59 252.806 1136.07 247.728 1136.07 242.015ZM1302.38 217.735H1242.87V183.458H1302.38C1312.11 183.458 1319.99 181.871 1326.02 178.697C1332.16 175.417 1336.66 170.974 1339.51 165.367C1342.37 159.654 1343.8 153.147 1343.8 145.848C1343.8 138.759 1342.37 132.147 1339.51 126.011C1336.66 119.875 1332.16 114.903 1326.02 111.094C1319.99 107.286 1312.11 105.381 1302.38 105.381H1257.15V302H1213.51V70.9453H1302.38C1320.36 70.9453 1335.7 74.172 1348.4 80.6255C1361.2 86.9731 1370.93 95.807 1377.6 107.127C1384.37 118.341 1387.76 131.142 1387.76 145.53C1387.76 160.447 1384.37 173.301 1377.6 184.092C1370.93 194.883 1361.2 203.188 1348.4 209.007C1335.7 214.826 1320.36 217.735 1302.38 217.735Z" fill="white"/>
</g>
<g filter="url(#filter1_d_152_181)">
<path d="M816.531 370.5C816.531 369.438 816.365 368.5 816.031 367.688C815.719 366.854 815.156 366.104 814.344 365.438C813.552 364.771 812.448 364.135 811.031 363.531C809.635 362.927 807.865 362.312 805.719 361.688C803.469 361.021 801.438 360.281 799.625 359.469C797.812 358.635 796.26 357.688 794.969 356.625C793.677 355.562 792.688 354.344 792 352.969C791.312 351.594 790.969 350.021 790.969 348.25C790.969 346.479 791.333 344.844 792.062 343.344C792.792 341.844 793.833 340.542 795.188 339.438C796.562 338.312 798.198 337.438 800.094 336.812C801.99 336.188 804.104 335.875 806.438 335.875C809.854 335.875 812.75 336.531 815.125 337.844C817.521 339.135 819.344 340.833 820.594 342.938C821.844 345.021 822.469 347.25 822.469 349.625H816.469C816.469 347.917 816.104 346.406 815.375 345.094C814.646 343.76 813.542 342.719 812.062 341.969C810.583 341.198 808.708 340.812 806.438 340.812C804.292 340.812 802.521 341.135 801.125 341.781C799.729 342.427 798.688 343.302 798 344.406C797.333 345.51 797 346.771 797 348.188C797 349.146 797.198 350.021 797.594 350.812C798.01 351.583 798.646 352.302 799.5 352.969C800.375 353.635 801.479 354.25 802.812 354.812C804.167 355.375 805.781 355.917 807.656 356.438C810.24 357.167 812.469 357.979 814.344 358.875C816.219 359.771 817.76 360.781 818.969 361.906C820.198 363.01 821.104 364.271 821.688 365.688C822.292 367.083 822.594 368.667 822.594 370.438C822.594 372.292 822.219 373.969 821.469 375.469C820.719 376.969 819.646 378.25 818.25 379.312C816.854 380.375 815.177 381.198 813.219 381.781C811.281 382.344 809.115 382.625 806.719 382.625C804.615 382.625 802.542 382.333 800.5 381.75C798.479 381.167 796.635 380.292 794.969 379.125C793.323 377.958 792 376.521 791 374.812C790.021 373.083 789.531 371.083 789.531 368.812H795.531C795.531 370.375 795.833 371.719 796.438 372.844C797.042 373.948 797.865 374.865 798.906 375.594C799.969 376.323 801.167 376.865 802.5 377.219C803.854 377.552 805.26 377.719 806.719 377.719C808.823 377.719 810.604 377.427 812.062 376.844C813.521 376.26 814.625 375.427 815.375 374.344C816.146 373.26 816.531 371.979 816.531 370.5ZM835.188 355.406V382H829.406V348.188H834.875L835.188 355.406ZM833.812 363.812L831.406 363.719C831.427 361.406 831.771 359.271 832.438 357.312C833.104 355.333 834.042 353.615 835.25 352.156C836.458 350.698 837.896 349.573 839.562 348.781C841.25 347.969 843.115 347.562 845.156 347.562C846.823 347.562 848.323 347.792 849.656 348.25C850.99 348.688 852.125 349.396 853.062 350.375C854.021 351.354 854.75 352.625 855.25 354.188C855.75 355.729 856 357.615 856 359.844V382H850.188V359.781C850.188 358.01 849.927 356.594 849.406 355.531C848.885 354.448 848.125 353.667 847.125 353.188C846.125 352.688 844.896 352.438 843.438 352.438C842 352.438 840.688 352.74 839.5 353.344C838.333 353.948 837.323 354.781 836.469 355.844C835.635 356.906 834.979 358.125 834.5 359.5C834.042 360.854 833.812 362.292 833.812 363.812ZM884.719 376.219V358.812C884.719 357.479 884.448 356.323 883.906 355.344C883.385 354.344 882.594 353.573 881.531 353.031C880.469 352.49 879.156 352.219 877.594 352.219C876.135 352.219 874.854 352.469 873.75 352.969C872.667 353.469 871.812 354.125 871.188 354.938C870.583 355.75 870.281 356.625 870.281 357.562H864.5C864.5 356.354 864.812 355.156 865.438 353.969C866.062 352.781 866.958 351.708 868.125 350.75C869.312 349.771 870.729 349 872.375 348.438C874.042 347.854 875.896 347.562 877.938 347.562C880.396 347.562 882.562 347.979 884.438 348.812C886.333 349.646 887.812 350.906 888.875 352.594C889.958 354.26 890.5 356.354 890.5 358.875V374.625C890.5 375.75 890.594 376.948 890.781 378.219C890.99 379.49 891.292 380.583 891.688 381.5V382H885.656C885.365 381.333 885.135 380.448 884.969 379.344C884.802 378.219 884.719 377.177 884.719 376.219ZM885.719 361.5L885.781 365.562H879.938C878.292 365.562 876.823 365.698 875.531 365.969C874.24 366.219 873.156 366.604 872.281 367.125C871.406 367.646 870.74 368.302 870.281 369.094C869.823 369.865 869.594 370.771 869.594 371.812C869.594 372.875 869.833 373.844 870.312 374.719C870.792 375.594 871.51 376.292 872.469 376.812C873.448 377.312 874.646 377.562 876.062 377.562C877.833 377.562 879.396 377.188 880.75 376.438C882.104 375.688 883.177 374.771 883.969 373.688C884.781 372.604 885.219 371.552 885.281 370.531L887.75 373.312C887.604 374.188 887.208 375.156 886.562 376.219C885.917 377.281 885.052 378.302 883.969 379.281C882.906 380.24 881.635 381.042 880.156 381.688C878.698 382.312 877.052 382.625 875.219 382.625C872.927 382.625 870.917 382.177 869.188 381.281C867.479 380.385 866.146 379.188 865.188 377.688C864.25 376.167 863.781 374.469 863.781 372.594C863.781 370.781 864.135 369.188 864.844 367.812C865.552 366.417 866.573 365.26 867.906 364.344C869.24 363.406 870.844 362.698 872.719 362.219C874.594 361.74 876.688 361.5 879 361.5H885.719ZM905.406 334V382H899.594V334H905.406ZM926.062 348.188L911.312 363.969L903.062 372.531L902.594 366.375L908.5 359.312L919 348.188H926.062ZM920.781 382L908.719 365.875L911.719 360.719L927.594 382H920.781ZM945.438 382.625C943.083 382.625 940.948 382.229 939.031 381.438C937.135 380.625 935.5 379.49 934.125 378.031C932.771 376.573 931.729 374.844 931 372.844C930.271 370.844 929.906 368.656 929.906 366.281V364.969C929.906 362.219 930.312 359.771 931.125 357.625C931.938 355.458 933.042 353.625 934.438 352.125C935.833 350.625 937.417 349.49 939.188 348.719C940.958 347.948 942.792 347.562 944.688 347.562C947.104 347.562 949.188 347.979 950.938 348.812C952.708 349.646 954.156 350.812 955.281 352.312C956.406 353.792 957.24 355.542 957.781 357.562C958.323 359.562 958.594 361.75 958.594 364.125V366.719H933.344V362H952.812V361.562C952.729 360.062 952.417 358.604 951.875 357.188C951.354 355.771 950.521 354.604 949.375 353.688C948.229 352.771 946.667 352.312 944.688 352.312C943.375 352.312 942.167 352.594 941.062 353.156C939.958 353.698 939.01 354.51 938.219 355.594C937.427 356.677 936.812 358 936.375 359.562C935.938 361.125 935.719 362.927 935.719 364.969V366.281C935.719 367.885 935.938 369.396 936.375 370.812C936.833 372.208 937.49 373.438 938.344 374.5C939.219 375.562 940.271 376.396 941.5 377C942.75 377.604 944.167 377.906 945.75 377.906C947.792 377.906 949.521 377.49 950.938 376.656C952.354 375.823 953.594 374.708 954.656 373.312L958.156 376.094C957.427 377.198 956.5 378.25 955.375 379.25C954.25 380.25 952.865 381.062 951.219 381.688C949.594 382.312 947.667 382.625 945.438 382.625ZM979.688 365.469V364.75C979.688 362.312 980.042 360.052 980.75 357.969C981.458 355.865 982.479 354.042 983.812 352.5C985.146 350.938 986.76 349.729 988.656 348.875C990.552 348 992.677 347.562 995.031 347.562C997.406 347.562 999.542 348 1001.44 348.875C1003.35 349.729 1004.98 350.938 1006.31 352.5C1007.67 354.042 1008.7 355.865 1009.41 357.969C1010.11 360.052 1010.47 362.312 1010.47 364.75V365.469C1010.47 367.906 1010.11 370.167 1009.41 372.25C1008.7 374.333 1007.67 376.156 1006.31 377.719C1004.98 379.26 1003.36 380.469 1001.47 381.344C999.594 382.198 997.469 382.625 995.094 382.625C992.719 382.625 990.583 382.198 988.688 381.344C986.792 380.469 985.167 379.26 983.812 377.719C982.479 376.156 981.458 374.333 980.75 372.25C980.042 370.167 979.688 367.906 979.688 365.469ZM985.469 364.75V365.469C985.469 367.156 985.667 368.75 986.062 370.25C986.458 371.729 987.052 373.042 987.844 374.188C988.656 375.333 989.667 376.24 990.875 376.906C992.083 377.552 993.49 377.875 995.094 377.875C996.677 377.875 998.062 377.552 999.25 376.906C1000.46 376.24 1001.46 375.333 1002.25 374.188C1003.04 373.042 1003.64 371.729 1004.03 370.25C1004.45 368.75 1004.66 367.156 1004.66 365.469V364.75C1004.66 363.083 1004.45 361.51 1004.03 360.031C1003.64 358.531 1003.03 357.208 1002.22 356.062C1001.43 354.896 1000.43 353.979 999.219 353.312C998.031 352.646 996.635 352.312 995.031 352.312C993.448 352.312 992.052 352.646 990.844 353.312C989.656 353.979 988.656 354.896 987.844 356.062C987.052 357.208 986.458 358.531 986.062 360.031C985.667 361.51 985.469 363.083 985.469 364.75ZM1024 348.188V382H1018.19V348.188H1024ZM1017.75 339.219C1017.75 338.281 1018.03 337.49 1018.59 336.844C1019.18 336.198 1020.03 335.875 1021.16 335.875C1022.26 335.875 1023.1 336.198 1023.69 336.844C1024.29 337.49 1024.59 338.281 1024.59 339.219C1024.59 340.115 1024.29 340.885 1023.69 341.531C1023.1 342.156 1022.26 342.469 1021.16 342.469C1020.03 342.469 1019.18 342.156 1018.59 341.531C1018.03 340.885 1017.75 340.115 1017.75 339.219ZM1039.56 334V382H1033.75V334H1039.56Z" fill="white"/>
</g>
<defs>
<filter id="filter0_d_152_181" x="773.904" y="67.7715" width="617.851" height="245.402" filterUnits="userSpaceOnUse" color-interpolation-filters="sRGB">
<feFlood flood-opacity="0" result="BackgroundImageFix"/>
<feColorMatrix in="SourceAlpha" type="matrix" values="0 0 0 0 0 0 0 0 0 0 0 0 0 0 0 0 0 0 127 0" result="hardAlpha"/>
<feOffset dy="4"/>
<feGaussianBlur stdDeviation="2"/>
<feComposite in2="hardAlpha" operator="out"/>
<feColorMatrix type="matrix" values="0 0 0 0 0 0 0 0 0 0 0 0 0 0 0 0 0 0 0.25 0"/>
<feBlend mode="normal" in2="BackgroundImageFix" result="effect1_dropShadow_152_181"/>
<feBlend mode="normal" in="SourceGraphic" in2="effect1_dropShadow_152_181" result="shape"/>
</filter>
<filter id="filter1_d_152_181" x="784.531" y="333" width="260.031" height="58.625" filterUnits="userSpaceOnUse" color-interpolation-filters="sRGB">
<feFlood flood-opacity="0" result="BackgroundImageFix"/>
<feColorMatrix in="SourceAlpha" type="matrix" values="0 0 0 0 0 0 0 0 0 0 0 0 0 0 0 0 0 0 127 0" result="hardAlpha"/>
<feOffset dy="4"/>
<feGaussianBlur stdDeviation="2.5"/>
<feComposite in2="hardAlpha" operator="out"/>
<feColorMatrix type="matrix" values="0 0 0 0 0 0 0 0 0 0 0 0 0 0 0 0 0 0 0.25 0"/>
<feBlend mode="normal" in2="BackgroundImageFix" result="effect1_dropShadow_152_181"/>
<feBlend mode="normal" in="SourceGraphic" in2="effect1_dropShadow_152_181" result="shape"/>
</filter>
</defs>
</svg>
