<svg width="1609" height="1500" preserveAspectRatio="none" viewBox="0 0 1609 1500" fill="none" xmlns="http://www.w3.org/2000/svg">
<path d="M1315.65 1449.61C1400.47 1092.5 1541.48 303.447 1426.92 4.15985" stroke="#ACAAAA" stroke-opacity="0.36" togglstroke-width="2"/>
<path d="M1410.29 1449.61C1495.11 1092.5 1636.11 303.447 1521.56 4.15985" stroke="#ACAAAA" stroke-opacity="0.36" togglstroke-width="2"/>
<path d="M1504.93 1449.61C1589.75 1092.5 1528.59 1332.49 1604.71 1019.01" stroke="#ACAAAA" stroke-opacity="0.36" togglstroke-width="2"/>
<path d="M1221.02 1449.61C1305.84 1092.5 1446.84 303.447 1332.28 4.15985" stroke="#ACAAAA" stroke-opacity="0.36" togglstroke-width="2"/>
<path d="M1126.38 1449.61C1211.2 1092.5 1352.2 303.447 1237.64 4.15985" stroke="#ACAAAA" stroke-opacity="0.36" togglstroke-width="2"/>
<path d="M1031.74 1449.61C1116.56 1092.5 1257.56 303.447 1143 4.15985" stroke="#ACAAAA" stroke-opacity="0.36" togglstroke-width="2"/>
<path d="M937.1 1449.61C1021.92 1092.5 1162.92 303.447 1048.36 4.15985" stroke="#ACAAAA" stroke-opacity="0.36" togglstroke-width="2"/>
<path d="M842.462 1449.61C927.282 1092.5 1068.28 303.447 953.724 4.15985" stroke="#ACAAAA" stroke-opacity="0.36" togglstroke-width="2"/>
<path d="M747.822 1449.61C832.643 1092.5 973.643 303.447 859.085 4.15985" stroke="#ACAAAA" stroke-opacity="0.36" togglstroke-width="2"/>
<path d="M653.184 1449.61C738.004 1092.5 879.005 303.447 764.446 4.15985" stroke="#ACAAAA" stroke-opacity="0.36" togglstroke-width="2"/>
<path d="M558.545 1449.61C643.365 1092.5 784.366 303.447 669.807 4.15985" stroke="#ACAAAA" stroke-opacity="0.36" togglstroke-width="2"/>
<path d="M463.906 1449.61C548.727 1092.5 689.728 303.447 575.169 4.15985" stroke="#ACAAAA" stroke-opacity="0.36" togglstroke-width="2"/>
<path d="M369.268 1449.61C454.088 1092.5 595.089 303.447 480.53 4.15985" stroke="#ACAAAA" stroke-opacity="0.36" togglstroke-width="2"/>
<path d="M274.629 1449.61C359.45 1092.5 500.45 303.447 385.891 4.15985" stroke="#ACAAAA" stroke-opacity="0.36" togglstroke-width="2"/>
<path d="M179.991 1449.61C264.811 1092.5 405.812 303.447 291.253 4.15985" stroke="#ACAAAA" stroke-opacity="0.36" togglstroke-width="2"/>
<path d="M85.3516 1449.61C170.172 1092.5 311.173 303.447 196.614 4.15985" stroke="#ACAAAA" stroke-opacity="0.36" togglstroke-width="2"/>
<path d="M58.606 1175.4C131.908 818.079 195.088 303.623 96.0858 4.15979" stroke="#ACAAAA" stroke-opacity="0.36" togglstroke-width="2"/>
<path d="M1607.8 226.89C1229.65 139.484 1178.64 107.137 807.143 167.013C435.647 226.89 238.255 262.679 58.606 226.89" stroke="#ACAAAA" stroke-opacity="0.36" togglstroke-width="2"/>
<path d="M1607.8 162.127C1225.13 74.7209 1173.51 42.3736 797.573 102.251C421.637 162.127 221.886 197.916 40.09 162.127" stroke="#ACAAAA" stroke-opacity="0.36" togglstroke-width="2"/>
<path d="M1607.8 97.3645C1220.61 9.958 1168.38 -22.3893 788.004 37.4876C407.627 97.3645 205.517 133.153 21.5738 97.3645" stroke="#ACAAAA" stroke-opacity="0.36" togglstroke-width="2"/>
<path d="M580.148 2.0929C208.652 61.9698 180.649 68.1959 1 32.4074" stroke="#ACAAAA" stroke-opacity="0.36" togglstroke-width="2"/>
<path d="M1607.8 293.031C1229.65 205.625 1178.64 173.277 807.143 233.154C435.647 293.031 238.255 328.82 58.606 293.031" stroke="#ACAAAA" stroke-opacity="0.36" togglstroke-width="2"/>
<path d="M1607.8 359.172C1229.65 271.765 1178.64 239.418 807.143 299.295C435.647 359.172 238.255 394.96 58.606 359.172" stroke="#ACAAAA" stroke-opacity="0.36" togglstroke-width="2"/>
<path d="M1607.8 425.313C1229.65 337.906 1178.64 305.559 807.143 365.436C435.647 425.313 238.255 461.101 58.606 425.313" stroke="#ACAAAA" stroke-opacity="0.36" togglstroke-width="2"/>
<path d="M1607.8 491.454C1229.65 404.047 1178.64 371.7 807.143 431.577C435.647 491.454 238.255 527.242 58.606 491.454" stroke="#ACAAAA" stroke-opacity="0.36" togglstroke-width="2"/>
<path d="M1607.8 557.594C1229.65 470.188 1178.64 437.841 807.143 497.717C435.647 557.594 238.255 593.383 58.606 557.594" stroke="#ACAAAA" stroke-opacity="0.36" togglstroke-width="2"/>
<path d="M1607.8 623.735C1229.65 536.329 1178.64 503.981 807.143 563.858C435.647 623.735 238.255 659.524 58.606 623.735" stroke="#ACAAAA" stroke-opacity="0.36" togglstroke-width="2"/>
<path d="M1607.8 689.876C1229.65 602.469 1178.64 570.122 807.143 629.999C435.647 689.876 238.255 725.664 58.606 689.876" stroke="#ACAAAA" stroke-opacity="0.36" togglstroke-width="2"/>
<path d="M1607.8 756.017C1229.65 668.61 1178.64 636.263 807.143 696.14C435.647 756.017 238.255 791.805 58.606 756.017" stroke="#ACAAAA" stroke-opacity="0.36" togglstroke-width="2"/>
<path d="M1607.8 822.158C1229.65 734.751 1178.64 702.404 807.143 762.281C435.647 822.158 238.255 857.946 58.606 822.158" stroke="#ACAAAA" stroke-opacity="0.36" togglstroke-width="2"/>
<path d="M1607.8 888.298C1229.65 800.892 1178.64 768.545 807.143 828.422C435.647 888.298 238.255 924.087 58.606 888.298" stroke="#ACAAAA" stroke-opacity="0.36" togglstroke-width="2"/>
<path d="M1607.8 954.439C1229.65 867.033 1178.64 834.685 807.143 894.562C435.647 954.439 238.255 990.228 58.606 954.439" stroke="#ACAAAA" stroke-opacity="0.36" togglstroke-width="2"/>
<path d="M1607.8 1020.58C1229.65 933.174 1178.64 900.826 807.143 960.703C435.647 1020.58 238.255 1056.37 58.606 1020.58" stroke="#ACAAAA" stroke-opacity="0.36" togglstroke-width="2"/>
<path d="M1607.8 1086.72C1229.65 999.314 1178.64 966.967 807.143 1026.84C435.647 1086.72 238.255 1122.51 58.606 1086.72" stroke="#ACAAAA" stroke-opacity="0.36" togglstroke-width="2"/>
<path d="M1607.8 1152.86C1229.65 1065.46 1178.64 1033.11 807.143 1092.98C435.647 1152.86 238.255 1188.65 58.606 1152.86" stroke="#ACAAAA" stroke-opacity="0.36" togglstroke-width="2"/>
<path d="M1607.8 1219C1229.65 1131.6 1178.64 1099.25 807.143 1159.13C435.647 1219 238.255 1254.79 58.606 1219" stroke="#ACAAAA" stroke-opacity="0.36" togglstroke-width="2"/>
<path d="M1607.8 1285.14C1229.65 1197.74 1178.64 1165.39 807.143 1225.27C435.647 1285.14 238.255 1320.93 58.606 1285.14" stroke="#ACAAAA" stroke-opacity="0.36" togglstroke-width="2"/>
<path d="M1607.8 1351.28C1229.65 1263.88 1178.64 1231.53 807.143 1291.41C435.647 1351.28 238.255 1387.07 58.606 1351.28" stroke="#ACAAAA" stroke-opacity="0.36" togglstroke-width="2"/>
<path d="M1607.8 1417.43C1229.65 1330.02 1178.64 1297.67 807.143 1357.55C435.647 1417.43 238.255 1453.21 58.606 1417.43" stroke="#ACAAAA" stroke-opacity="0.36" togglstroke-width="2"/>
<path d="M1607.8 1483.57C1229.65 1396.16 1178.64 1363.81 807.143 1423.69C435.647 1483.57 238.255 1519.35 58.606 1483.57" stroke="#ACAAAA" stroke-opacity="0.36" togglstroke-width="2"/>
</svg>
